<?xml version="1.0" encoding="UTF-8" standalone="no"?>
<svg
   xmlns:dc="http://purl.org/dc/elements/1.1/"
   xmlns:cc="http://creativecommons.org/ns#"
   xmlns:rdf="http://www.w3.org/1999/02/22-rdf-syntax-ns#"
   xmlns:svg="http://www.w3.org/2000/svg"
   xmlns="http://www.w3.org/2000/svg"
   id="svg8"
   version="1.1"
   viewBox="0 0 150 150"
   height="150mm"
   width="150mm">
  <defs
     id="defs2" />
  <metadata
     id="metadata5">
    <rdf:RDF>
      <cc:Work
         rdf:about="">
        <dc:format>image/svg+xml</dc:format>
        <dc:type
           rdf:resource="http://purl.org/dc/dcmitype/StillImage" />
        <dc:title></dc:title>
      </cc:Work>
    </rdf:RDF>
  </metadata>
  <g
     transform="translate(-11.341498,-79.714325)"
     id="layer1">
    <path
       id="rect819"
       transform="scale(0.26458333)"
       d="m 298.30859,463.04688 c -4.50856,-10e-6 -8.13867,3.62815 -8.13867,8.13671 v 77.40821 h -78.75586 c -3.37499,0 -6.09179,2.7168 -6.09179,6.09179 v 60.12696 c 0,3.37499 2.7168,6.09179 6.09179,6.09179 h 78.75586 v 77.40821 c 0,4.50856 3.63011,8.13672 8.13867,8.13672 h 56.04297 c 4.50856,0 8.13672,-3.62816 8.13672,-8.13672 v -77.40821 h 78.75781 c 3.375,0 6.0918,-2.7168 6.0918,-6.09179 v -60.12696 c 0,-3.37499 -2.7168,-6.09179 -6.0918,-6.09179 h -78.75781 v -77.40821 c 0,-4.50856 -3.62816,-8.13671 -8.13672,-8.13671 z"
       style="opacity:1;vector-effect:none;fill:#808080;fill-opacity:1;fill-rule:evenodd;stroke:#808080;stroke-width:1.19450116;stroke-linecap:round;stroke-linejoin:round;stroke-miterlimit:4;stroke-dasharray:none;stroke-dashoffset:0;stroke-opacity:1;paint-order:normal" />
  </g>
</svg>
