<?xml version="1.0" encoding="UTF-8" standalone="no"?>
<!-- Created with Inkscape (http://www.inkscape.org/) -->

<svg
   xmlns:dc="http://purl.org/dc/elements/1.1/"
   xmlns:cc="http://creativecommons.org/ns#"
   xmlns:rdf="http://www.w3.org/1999/02/22-rdf-syntax-ns#"
   xmlns:svg="http://www.w3.org/2000/svg"
   xmlns="http://www.w3.org/2000/svg"
   xmlns:sodipodi="http://sodipodi.sourceforge.net/DTD/sodipodi-0.dtd"
   xmlns:inkscape="http://www.inkscape.org/namespaces/inkscape"
   width="51.868813mm"
   height="15.049527mm"
   viewBox="0 0 51.868812 15.049527"
   version="1.1"
   id="svg8"
   inkscape:version="0.92.2 (5c3e80d, 2017-08-06)"
   sodipodi:docname="arts.svg">
  <defs
     id="defs2" />
  <sodipodi:namedview
     id="base"
     pagecolor="#ffffff"
     bordercolor="#666666"
     borderopacity="1.0"
     inkscape:pageopacity="0.0"
     inkscape:pageshadow="2"
     inkscape:zoom="1"
     inkscape:cx="222.97596"
     inkscape:cy="29.764956"
     inkscape:document-units="mm"
     inkscape:current-layer="layer1"
     showgrid="false"
     showborder="false"
     fit-margin-top="0"
     fit-margin-left="0"
     fit-margin-right="0"
     fit-margin-bottom="0"
     inkscape:window-width="1853"
     inkscape:window-height="1053"
     inkscape:window-x="67"
     inkscape:window-y="27"
     inkscape:window-maximized="1" />
  <metadata
     id="metadata5">
    <rdf:RDF>
      <cc:Work
         rdf:about="">
        <dc:format>image/svg+xml</dc:format>
        <dc:type
           rdf:resource="http://purl.org/dc/dcmitype/StillImage" />
        <dc:title></dc:title>
      </cc:Work>
    </rdf:RDF>
  </metadata>
  <g
     inkscape:label="Layer 1"
     inkscape:groupmode="layer"
     id="layer1"
     transform="translate(160.74691,-92.711201)">
    <flowRoot
       xml:space="preserve"
       id="flowRoot815"
       style="font-style:normal;font-variant:normal;font-weight:normal;font-stretch:normal;font-size:10.66666698px;line-height:1.25;font-family:'The Blacklist';-inkscape-font-specification:'The Blacklist';letter-spacing:0px;word-spacing:0px;fill:#000000;fill-opacity:1;stroke:none"
       transform="scale(0.26458333)"><flowRegion
         id="flowRegion817"
         style="font-style:normal;font-variant:normal;font-weight:normal;font-stretch:normal;font-family:'The Blacklist';-inkscape-font-specification:'The Blacklist'"><rect
           id="rect819"
           width="425.71429"
           height="260"
           x="-722.85712"
           y="268.23398"
           style="font-style:normal;font-variant:normal;font-weight:normal;font-stretch:normal;font-family:'The Blacklist';-inkscape-font-specification:'The Blacklist'" /></flowRegion><flowPara
         id="flowPara821"></flowPara></flowRoot>    <g
       aria-label="Arts"
       transform="matrix(0.26458333,0,0,0.26458333,11.1125,-2.38125)"
       style="font-style:normal;font-variant:normal;font-weight:normal;font-stretch:normal;font-size:64px;line-height:1.25;font-family:'The Blacklist';-inkscape-font-specification:'The Blacklist';letter-spacing:0px;word-spacing:0px;fill:none;fill-opacity:1;stroke:#ff6600;stroke-width:2.1354332;stroke-miterlimit:4;stroke-dasharray:none"
       id="flowRoot823">
      <path
         d="m -584.07996,362.44153 q 0.19693,0.19692 0.39385,0.4923 0.39384,0.68923 0.19692,1.47693 -0.39384,1.28 -1.47692,4.92307 -1.08308,3.64308 -2.16616,7.68 -1.28,4.72616 -2.85538,10.14154 -1.28,4.72616 -2.36308,10.24 -1.08307,5.41539 -1.7723,9.84616 -0.19693,1.37846 -0.0985,2.85538 0.19693,1.47692 0.88616,2.26462 l 0.19692,0.39384 q 0.19692,0.49231 0,0.68923 -0.39385,0.39385 -0.98461,0.88616 -0.49231,0.4923 -1.18154,0.68923 -0.29539,0 -0.49231,0.0985 -1.28,0.19692 -2.36308,0 -0.98461,-0.19692 -1.77231,-0.49231 -0.98461,-0.39384 -1.67384,-0.88615 l -0.0985,-0.0985 q -0.19693,-0.19693 -0.19693,-0.39385 -0.29538,-0.39385 -0.29538,-1.18154 -0.19692,-0.98461 -0.59077,-2.75692 -0.39385,-1.77231 -1.18154,-3.93846 -0.68923,-2.16616 -1.87077,-4.52923 -1.08307,-2.36308 -2.75692,-4.6277 -6.00615,7.38462 -11.12615,11.61847 -5.02154,4.13538 -7.87693,5.6123 -1.96923,1.08308 -3.74154,1.37846 -1.67384,0.39385 -2.95384,0.39385 -1.47693,0 -2.75693,-0.29538 -4.52923,-1.28 -6.99076,-3.3477 -2.36308,-2.06769 -3.3477,-3.44615 -0.39384,-0.49231 -0.59077,-0.98462 -0.0985,-0.59076 -0.29538,-1.08307 -0.19692,-0.49231 -0.19692,-0.88616 -0.0985,-4.52923 1.47692,-7.58153 1.57538,-3.15077 3.64308,-5.12 2.16615,-1.96924 4.3323,-2.95385 2.26462,-0.98462 3.44616,-1.37846 0.29538,-0.0985 0.68923,-0.0985 0.78769,0 1.28,0.19692 3.05231,1.08308 4.92308,3.15077 1.96923,2.06769 2.85538,3.24923 0.0985,0.19692 0.0985,0.39385 0,0.19692 -0.0985,0.39384 0,0.19692 -0.19692,0.39385 -0.29539,0.39384 -0.98462,0.39384 -0.29538,0 -0.49231,-0.19692 -1.08307,-0.59077 -2.16615,-0.68923 -1.08308,-0.0985 -2.06769,0.0985 -1.08308,0.19692 -2.16616,0.59077 -3.15077,1.08308 -4.92307,3.15077 -1.77231,1.96923 -2.75693,3.93846 -1.08307,2.36308 -1.47692,5.02154 3.93846,0.49231 7.97539,-0.68923 4.03692,-1.18154 7.87692,-3.44615 3.84,-2.26462 7.48308,-5.41539 3.74153,-3.15077 7.08923,-6.79385 -2.46154,-2.06769 -5.61231,-3.54461 -3.15077,-1.57539 -7.28616,-2.06769 -0.39384,0.19692 -0.98461,0.4923 -0.59077,0.19693 -1.08308,-0.0985 -0.49231,-0.0985 -0.29538,-0.59077 l 0.19692,-0.39384 q 0.88615,-1.28 2.85539,-3.05231 1.96923,-1.77231 4.72615,-2.75692 2.06769,-0.7877 5.21846,1.08307 3.15077,1.87077 6.4,6.30154 3.64308,-4.33231 6.79385,-8.66461 3.15077,-4.43077 5.41538,-7.97539 2.36308,-3.64307 3.84,-6.20307 1.47692,-2.56 1.87077,-3.3477 0,-0.4923 0.59077,-0.4923 1.96923,0 3.44615,0.68923 1.57539,0.59077 2.46154,1.28 z m -16.93538,39.87692 q 0.88615,-3.64308 1.96923,-7.87692 1.08308,-4.23385 2.26461,-8.4677 1.18154,-4.3323 2.26462,-8.1723 1.08308,-3.93847 1.87077,-6.79385 -3.15077,6.20308 -6.4,11.42154 -3.15077,5.21846 -6.4,9.55077 1.28,2.26461 2.36308,4.82461 1.18153,2.56 2.06769,5.51385 z"
         id="path862"
         inkscape:connector-curvature="0" />
      <path
         d="m -565.91842,383.11845 q 0.0985,0.0985 0.29539,0.39385 0.29538,0.29538 0.0985,0.98461 -0.0985,0 -0.0985,0.0985 v 0.0985 q -0.98462,2.56 -1.67385,4.92308 -0.59077,2.36308 -1.08308,4.33231 -0.0985,0.49231 -0.49231,0.68923 -0.19692,0.0985 -0.29538,0 -2.26462,-0.39385 -3.54462,-0.88615 -1.18153,-0.59077 -1.87076,-0.98462 -0.49231,-0.19692 -0.49231,-0.78769 v -0.59077 l 0.88615,-3.24923 q -2.16615,2.56 -3.84,5.90769 -1.67384,3.34769 -2.85538,6.49846 -1.18154,3.15077 -1.87077,5.61231 -0.59077,2.46154 -0.78769,3.24923 v 0.29538 q 0,0.19693 -0.0985,0.29539 -0.19692,0.19692 -0.39384,0.19692 -0.68923,-0.19692 -2.06769,-0.39384 -1.28,-0.29539 -2.85539,-1.08308 -0.29538,-0.0985 -0.29538,-0.39385 v -0.19692 q -0.19693,-2.16615 0.0985,-5.21846 0.19692,-3.05231 0.78769,-6.4 0.59077,-3.44616 1.37846,-6.99077 0.78769,-3.64308 1.57539,-6.89231 0.0985,-0.49231 -0.0985,-0.68923 -0.0985,-0.19692 0,-0.68923 0.0985,-0.29538 0.59077,-0.29538 h 0.0985 0.29538 0.0985 q 0.0985,0.0985 0.19692,0.0985 h 0.0985 q 0.88615,0.29538 2.36307,0.98461 1.57539,0.59077 2.75693,1.67385 l 0.0985,0.0985 q 0.0985,0 0.29538,0.29538 0.19693,0.19693 0.0985,0.68924 0,0.19692 -0.0985,0.29538 v 0.19692 q -0.19692,0.59077 -0.19692,0.68923 -0.49231,1.96923 -1.08308,4.03693 -0.59077,2.06769 -1.08307,4.23384 2.26461,-4.62769 4.62769,-7.77846 2.36307,-3.24923 3.74154,-4.82461 0.0985,0 0.0985,-0.0985 0.29538,-0.0985 0.59077,-0.59076 0.39384,-0.39385 0.98461,-0.39385 0.29539,0 0.49231,0.0985 0.98462,0.39385 2.16615,0.98462 1.28,0.59077 2.26462,1.47692 h 0.0985 z"
         id="path864"
         inkscape:connector-curvature="0" />
      <path
         d="m -560.27419,374.05999 q 0.39385,-1.47693 0.68923,-2.65846 0.29539,-1.28 0.49231,-2.0677 0.29538,-0.98461 0.0985,-1.18153 -0.19692,-0.19693 0,-0.7877 0.0985,-0.39384 0.59077,-0.29538 h 0.49231 q 0.0985,0.0985 0.19692,0.0985 0.88616,0.29538 2.46154,0.98462 1.57538,0.68923 2.85538,1.7723 0.19693,0.19693 0.29539,0.39385 0.19692,0.49231 0.0985,0.98461 -0.0985,0.19693 -0.19692,0.59077 0,0.39385 -0.19693,0.88616 3.74154,-0.78769 6.89231,-1.47693 3.15077,-0.68923 4.72616,-1.08307 6.00615,-1.57539 9.05846,-0.19693 3.15077,1.28 3.64307,4.13539 0.19693,1.18154 -0.19692,2.16615 -0.29538,0.88616 -0.88615,1.57539 -0.49231,0.59077 -1.08308,0.98461 -0.49231,0.39385 -0.78769,0.49231 -0.0985,0 -0.19692,0.0985 -0.7877,0.19693 -0.98462,-0.0985 -0.0985,-0.19692 -0.0985,-0.49231 0,-0.0985 0.0985,-0.29538 0.29538,-0.49231 0.0985,-0.68923 -1.28,-1.57539 -3.44615,-2.06769 -2.06769,-0.59077 -4.92308,-0.49231 -2.75692,0.0985 -6.10461,0.68923 -3.3477,0.49231 -6.99077,0.98461 -0.68923,2.75693 -1.57539,6.00616 -0.78769,3.15077 -1.57538,6.00615 -0.98462,3.93846 -1.57539,7.28616 -0.49231,3.24923 -0.68923,5.71076 -0.39384,2.85539 -0.39384,5.31693 2.56,-1.08308 3.93846,-3.24923 1.47692,-2.16616 2.26461,-4.33231 0.88616,-2.56 1.08308,-5.21846 0.78769,0.49231 1.18154,0.98461 0.49231,0.49231 0.68923,0.98462 0.29538,0.49231 0.39384,0.98461 -0.59076,3.64308 -1.96923,6.00616 -1.28,2.36307 -2.65846,3.74154 -1.67384,1.67384 -3.44615,2.56 -3.24923,-0.7877 -5.51385,-2.0677 -2.16615,-1.28 -2.46154,-3.24923 -0.19692,-1.37846 0,-3.44615 0.0985,-2.06769 0.49231,-4.43077 0.29539,-2.36308 0.78769,-4.82462 0.59077,-2.46153 1.08308,-4.62769 0.49231,-2.06769 1.08308,-4.43077 0.59077,-2.46154 1.18154,-4.82461 -3.74154,0.29538 -6.00616,0.19692 -2.26461,-0.19692 -3.64307,-0.39385 -1.57539,-0.29538 -2.36308,-0.68923 -1.18154,-0.59077 -1.57539,-1.47692 -0.39384,-0.98461 -0.39384,-1.96923 0,-0.98462 0.19692,-1.67385 0.19692,-0.68923 0.19692,-0.88615 0,0 0.19693,-0.0985 0.4923,0 0.39384,0.68923 0,0.39385 0.0985,0.88615 0.0985,0.39385 0.39385,0.68923 1.67385,1.28 5.41539,1.37847 3.64307,0 8.07384,-0.49231 z"
         id="path866"
         inkscape:connector-curvature="0" />
      <path
         d="m -532.87996,398.77383 q -0.68923,2.36308 -1.87077,4.52923 -1.08307,2.0677 -2.95384,3.74154 -1.87077,1.57539 -4.52923,2.46154 -2.56,0.88616 -6.10462,0.78769 -2.75692,-0.0985 -4.23385,-1.08307 -1.57538,-1.08308 -2.06769,-2.65846 -0.59077,-1.67385 -0.29538,-3.84 0.19692,-2.16616 0.98461,-4.52924 0.0985,-0.0985 0.0985,-0.29538 l 1.08308,-2.56 q 0.19692,-0.49231 0.19692,-0.68923 -0.0985,-0.19692 0.0985,-0.68923 0.0985,-0.19692 0.59077,-0.19692 l 0.0985,0.0985 h 0.39384 q 0.19693,0.19692 0.19693,0.19692 h 0.0985 q 0.78769,0.49231 2.56,1.47692 1.77231,0.88616 2.65846,2.16616 v 0.0985 q 0.0985,0 0.19692,0.29538 0.0985,0.29539 -0.0985,0.68923 0,0.19693 -0.0985,0.29539 l -0.0985,0.19692 q -0.39385,0.59077 -0.39385,0.68923 l -0.39384,0.49231 q -0.59077,1.28 -1.08308,2.65846 -0.39385,1.28 -0.59077,2.36308 -0.0985,1.08308 0.0985,1.77231 0.29539,0.68923 0.98462,0.68923 2.06769,0 3.54461,-0.98462 1.57539,-1.08308 2.65846,-2.65846 1.08308,-1.57538 1.77231,-3.34769 0.68923,-1.77231 1.08308,-3.24923 0.59077,-2.46154 -0.39385,-3.54462 -0.98461,-1.18154 -2.85538,-1.57538 -1.77231,-0.49231 -4.23385,-0.39385 -2.46154,0.0985 -4.92308,0.0985 -0.39384,0 -0.39384,-0.39384 l 0.19692,-0.0985 q 0.29539,-1.57538 0.19692,-2.95384 0,-1.37846 -0.19692,-2.26462 -0.0985,-0.19692 0.0985,-0.39384 0.29539,-0.19693 0.29539,-0.29539 2.75692,-2.56 6.4,-3.93846 3.64307,-1.47692 7.58154,-2.06769 1.96923,0.0985 3.34769,2.46154 0.19692,0.68923 0.19692,1.47692 0,0.68923 -0.29538,1.47692 -0.29539,0.7877 -1.18154,1.67385 l -0.39385,0.19692 q -0.49231,0.19693 -0.88615,0.0985 -0.0985,0 -0.0985,-0.39384 0,-0.19693 0.0985,-0.39385 0,-0.19692 -0.59077,-0.68923 -0.49231,-0.49231 -1.67385,-0.78769 -1.08307,-0.29539 -2.95384,0 -1.77231,0.29538 -4.33231,1.77231 1.77231,0 4.23384,0.68923 2.46154,0.68923 4.52924,2.16615 2.06769,1.37846 3.24923,3.64308 1.18153,2.26461 0.39384,5.51384 z"
         id="path868"
         inkscape:connector-curvature="0" />
    </g>
    <flowRoot
       xml:space="preserve"
       id="flowRoot831"
       style="font-style:normal;font-weight:normal;font-size:10.66666698px;line-height:1.25;font-family:sans-serif;letter-spacing:0px;word-spacing:0px;fill:#000000;fill-opacity:1;stroke:none"
       transform="scale(0.26458333)"><flowRegion
         id="flowRegion833"><rect
           id="rect835"
           width="202.85715"
           height="105.71429"
           x="-740"
           y="322.51968" /></flowRegion><flowPara
         id="flowPara837"></flowPara></flowRoot>    <g
       aria-label="panel"
       style="font-style:normal;font-weight:normal;font-size:8.46666622px;line-height:1.25;font-family:sans-serif;letter-spacing:0px;word-spacing:0px;fill:#666666;fill-opacity:1;stroke:none;stroke-width:0.26458332"
       id="text873">
      <path
         d="m -127.95337,107.58292 h 0.77047 v -1.55786 l -0.0169,-0.80434 c 0.41486,0.33867 0.85513,0.5334 1.27,0.5334 1.05833,0 1.99813,-0.90593 1.99813,-2.48073 0,-1.41393 -0.64347,-2.34526 -1.8288,-2.34526 -0.5334,0 -1.04987,0.3048 -1.46473,0.64346 h -0.0254 l -0.0677,-0.52493 h -0.635 z m 1.89654,-2.47226 c -0.3048,0 -0.7112,-0.127 -1.12607,-0.4826 v -2.413 c 0.44873,-0.41487 0.84667,-0.635 1.23613,-0.635 0.87207,0 1.21074,0.6858 1.21074,1.7018 0,1.143 -0.5588,1.8288 -1.3208,1.8288 z"
         style="font-style:normal;font-variant:normal;font-weight:normal;font-stretch:normal;font-size:8.46666622px;font-family:'Noto Sans CJK JP';-inkscape-font-specification:'Noto Sans CJK JP';letter-spacing:-0.48683333px;word-spacing:0px;fill:#666666;stroke-width:0.26458332"
         id="path875"
         inkscape:connector-curvature="0" />
      <path
         d="m -122.2721,105.75412 c 0.56727,0 1.08373,-0.29633 1.524,-0.6604 h 0.0254 l 0.0677,0.55034 h 0.635 v -2.82787 c 0,-1.13453 -0.47413,-1.88806 -1.59173,-1.88806 -0.7366,0 -1.38853,0.3302 -1.81187,0.60113 l 0.3048,0.5334 c 0.36407,-0.24553 0.84667,-0.49107 1.38007,-0.49107 0.75353,0 0.94827,0.56727 0.94827,1.15994 -1.9558,0.22013 -2.82787,0.71966 -2.82787,1.71873 0,0.82973 0.57573,1.30386 1.3462,1.30386 z m 0.22013,-0.61806 c -0.4572,0 -0.8128,-0.21167 -0.8128,-0.7366 0,-0.59267 0.52494,-0.97367 2.07434,-1.15993 v 1.28693 c -0.44874,0.39793 -0.8128,0.6096 -1.26154,0.6096 z"
         style="font-style:normal;font-variant:normal;font-weight:normal;font-stretch:normal;font-size:8.46666622px;font-family:'Noto Sans CJK JP';-inkscape-font-specification:'Noto Sans CJK JP';letter-spacing:-0.48683333px;word-spacing:0px;fill:#666666;stroke-width:0.26458332"
         id="path877"
         inkscape:connector-curvature="0" />
      <path
         d="m -119.03823,105.64406 h 0.77046 v -3.33587 c 0.46567,-0.46566 0.7874,-0.70273 1.26154,-0.70273 0.6096,0 0.87206,0.36407 0.87206,1.22767 v 2.81093 h 0.77047 v -2.91253 c 0,-1.17687 -0.44027,-1.8034 -1.40547,-1.8034 -0.62653,0 -1.10066,0.34713 -1.54093,0.77893 h -0.0254 l -0.0677,-0.6604 h -0.635 z"
         style="font-style:normal;font-variant:normal;font-weight:normal;font-stretch:normal;font-size:8.46666622px;font-family:'Noto Sans CJK JP';-inkscape-font-specification:'Noto Sans CJK JP';letter-spacing:-0.48683333px;word-spacing:0px;fill:#666666;stroke-width:0.26458332"
         id="path879"
         inkscape:connector-curvature="0" />
      <path
         d="m -112.49495,105.75412 c 0.62653,0 1.1176,-0.21166 1.524,-0.47413 l -0.2794,-0.508 c -0.33867,0.2286 -0.70274,0.36407 -1.15147,0.36407 -0.87207,0 -1.4732,-0.62654 -1.524,-1.60867 h 3.0988 c 0.0169,-0.11006 0.0339,-0.27093 0.0339,-0.44026 0,-1.31234 -0.6604,-2.159 -1.8288,-2.159 -1.0668,0 -2.07434,0.93133 -2.07434,2.42146 0,1.51553 0.98214,2.40453 2.20134,2.40453 z m -1.43934,-2.77706 c 0.0931,-0.90593 0.66887,-1.43087 1.3208,-1.43087 0.71967,0 1.143,0.49954 1.143,1.43087 z"
         style="font-style:normal;font-variant:normal;font-weight:normal;font-stretch:normal;font-size:8.46666622px;font-family:'Noto Sans CJK JP';-inkscape-font-specification:'Noto Sans CJK JP';letter-spacing:-0.48683333px;word-spacing:0px;fill:#666666;stroke-width:0.26458332"
         id="path881"
         inkscape:connector-curvature="0" />
      <path
         d="m -109.32683,105.75412 c 0.2032,0 0.33866,-0.0254 0.44873,-0.0677 l -0.11007,-0.59267 c -0.0847,0.0169 -0.11853,0.0169 -0.16086,0.0169 -0.11854,0 -0.22014,-0.0931 -0.22014,-0.3302 v -5.875868 h -0.77046 v 5.825068 c 0,0.65193 0.23706,1.02446 0.8128,1.02446 z"
         style="font-style:normal;font-variant:normal;font-weight:normal;font-stretch:normal;font-size:8.46666622px;font-family:'Noto Sans CJK JP';-inkscape-font-specification:'Noto Sans CJK JP';letter-spacing:-0.48683333px;word-spacing:0px;fill:#666666;stroke-width:0.26458332"
         id="path883"
         inkscape:connector-curvature="0" />
    </g>
  </g>
</svg>
