<?xml version="1.0" encoding="UTF-8" standalone="no"?>
<svg
   xmlns:dc="http://purl.org/dc/elements/1.1/"
   xmlns:cc="http://creativecommons.org/ns#"
   xmlns:rdf="http://www.w3.org/1999/02/22-rdf-syntax-ns#"
   xmlns:svg="http://www.w3.org/2000/svg"
   xmlns="http://www.w3.org/2000/svg"
   id="svg8"
   version="1.1"
   viewBox="0 0 70.738464 16.080256"
   height="16.080256mm"
   width="70.738464mm">
  <defs
     id="defs2" />
  <metadata
     id="metadata5">
    <rdf:RDF>
      <cc:Work
         rdf:about="">
        <dc:format>image/svg+xml</dc:format>
        <dc:type
           rdf:resource="http://purl.org/dc/dcmitype/StillImage" />
        <dc:title></dc:title>
      </cc:Work>
    </rdf:RDF>
  </metadata>
  <g
     transform="translate(-64.170228,-113.12879)"
     id="layer1">
    <g
       id="text817"
       style="font-style:normal;font-variant:normal;font-weight:normal;font-stretch:normal;font-size:16.93333244px;line-height:1.25;font-family:'The Blacklist';-inkscape-font-specification:'The Blacklist';letter-spacing:0px;word-spacing:0px;fill:#ffffff;fill-opacity:1;stroke:none;stroke-width:0.5;stroke-miterlimit:4;stroke-dasharray:none"
       aria-label="Recensire.eu">
      <path
         id="path858"
         style="fill:#ffe6d5;stroke:#ff6600;stroke-width:0.5;stroke-miterlimit:4;stroke-dasharray:none"
         d="m 77.645845,126.86071 q 0,0 0.02605,0.026 0.0521,0.0782 0.130256,0.23446 0.104205,0.15631 0.156308,0.39077 0.07815,0.23446 0.02605,0.49497 -0.02605,0.28657 -0.20841,0.57313 -0.442872,0.67734 -1.406769,0.62523 -0.963898,-0.026 -2.292513,-1.1723 -0.364718,-0.28657 -1.016,-0.93785 -0.625231,-0.65128 -1.380718,-1.35467 -0.729436,-0.70338 -1.484923,-1.32861 -0.755487,-0.62523 -1.354666,-0.85969 -0.234462,1.32861 -0.39077,2.37066 -0.130256,1.016 -0.130256,1.27652 0,0.0781 -0.02605,0.13025 -0.0521,0.10421 -0.182359,0.10421 -0.677334,-0.0521 -1.094154,-0.28657 -0.416821,-0.20841 -0.59918,-0.41682 -0.0521,-0.0782 0.02605,-0.67733 0.104205,-0.59918 0.286564,-1.48492 0.20841,-0.9118 0.442872,-1.95385 0.260512,-1.0681 0.494974,-2.032 -0.312615,0.13026 -0.833641,0.26051 -0.494974,0.13026 -0.833641,-0.0782 -0.234462,-0.15631 -0.494974,-0.41682 -0.260513,-0.26051 -0.494975,-0.59918 -0.234461,-0.33867 -0.442871,-0.67733 -0.208411,-0.36472 -0.338667,-0.67734 -0.130257,-0.31261 0.02605,-0.72943 0.182359,-0.44288 0.521026,-0.88575 0.338666,-0.44287 0.755487,-0.85969 0.41682,-0.41682 0.781538,-0.70338 0.364718,-0.31262 0.963898,-0.65129 0.62523,-0.36471 1.354666,-0.67733 0.729436,-0.31261 1.510975,-0.52102 0.807589,-0.20841 1.537025,-0.23447 0.755487,-0.026 1.380718,0.18236 0.651282,0.20841 1.068103,0.72944 0.651282,0.72943 0.989948,1.64123 0.286564,0.78154 0.312616,1.84964 0.0521,1.04205 -0.547077,2.29251 -0.364718,0.72944 -0.911795,1.27652 -0.547077,0.54707 -1.198359,0.96389 -0.651282,0.39077 -1.354667,0.67734 -0.677333,0.26051 -1.302564,0.41682 0.781539,0.80759 1.719385,1.66728 0.937846,0.83364 1.901743,1.45887 0.989949,0.62523 1.875693,0.88574 0.911794,0.28657 1.615179,-0.0521 0.0521,0 0.0521,-0.15631 v -0.0782 q 0,-0.0521 0.07815,-0.13026 0.130257,-0.0782 0.260513,0.10421 z m -9.248204,-9.11795 q 0.130256,-0.44287 0.130256,-0.70338 0,-0.26052 -0.0521,-0.39077 -0.02605,-0.0261 0,-0.0782 0.0521,-0.1042 0.156307,-0.1042 0.521026,0 0.911795,0.18236 0.416821,0.18236 0.625231,0.31261 0.0521,0.0521 0.104205,0.13026 0.07815,0.13025 0.0521,0.39077 -0.07815,0.28656 -0.182359,0.70338 -0.104206,0.41682 -0.234462,0.80759 -0.130256,0.46892 -0.260513,0.9639 -0.156307,0.52102 -0.312615,1.14626 -0.130257,0.59918 -0.260513,1.25046 0.80759,-0.33867 1.797538,-0.9639 0.989949,-0.62523 1.745436,-1.69333 0.390769,-0.52103 0.703385,-1.12021 0.338666,-0.62523 0.494974,-1.25046 0.182359,-0.62523 0.156308,-1.19836 -0.02605,-0.57313 -0.338667,-1.04205 -0.130256,-0.18236 -0.468923,-0.31262 -0.312615,-0.1563 -0.859692,-0.1563 -0.547077,0 -1.354667,0.23446 -0.781538,0.20841 -1.823589,0.70338 -1.068103,0.52103 -1.719385,1.14626 -0.651282,0.62523 -0.963897,1.22441 -0.312616,0.59918 -0.338667,1.09415 -0.02605,0.49498 0.20841,0.72944 0.364718,0.36472 0.80759,0.39077 0.442872,0 0.677333,-0.0521 z" />
      <path
         id="path860"
         style="fill:#ffe6d5;stroke:#ff6600;stroke-width:0.5;stroke-miterlimit:4;stroke-dasharray:none"
         d="m 81.266668,122.97907 q -0.364718,1.32861 -1.068103,1.9799 -0.677333,0.65128 -1.406769,0.91179 -0.625231,0.20841 -1.198359,0.20841 -0.547077,0 -0.833641,-0.0521 -0.703384,-0.13026 -1.120205,-0.46893 -0.41682,-0.36471 -0.625231,-0.83364 -0.182359,-0.46892 -0.20841,-0.96389 -0.0521,-0.52103 0,-0.98995 0.0521,-0.54708 0.182359,-0.98995 0.130257,-0.46892 0.260513,-0.75549 0.234461,-0.54708 0.521026,-1.016 0.286564,-0.49497 0.62523,-0.85969 0.338667,-0.36472 0.677334,-0.57313 0.364718,-0.20841 0.755487,-0.18236 0.338666,0.0521 0.677333,0.15631 0.286564,0.10421 0.625231,0.28656 0.338666,0.18236 0.625231,0.52103 0.02605,0.026 0.130256,0.18236 0.130256,0.15631 0.182359,0.44287 0.0521,0.28656 -0.0521,0.67733 -0.07815,0.39077 -0.468923,0.8597 -0.364718,0.46892 -1.120205,1.04205 -0.729436,0.54707 -1.979897,1.14625 -0.0521,0.39077 -0.0521,0.67734 0.02605,0.28656 0.07815,0.49497 0.0521,0.23446 0.104205,0.36472 0.104205,0.15631 0.364718,0.23446 0.260513,0.0521 0.573128,0.026 0.312616,-0.026 0.59918,-0.0781 0.312615,-0.0782 0.521025,-0.15631 0.521026,-0.20841 0.859693,-0.57313 0.364718,-0.36472 0.599179,-0.75548 0.234462,-0.39077 0.338667,-0.72944 0.130256,-0.36472 0.182359,-0.57313 0.02605,-0.13026 0.0521,-0.23446 0.02605,-0.10421 0.02605,-0.18236 v -0.15631 q 0.364718,0.20841 0.494974,0.49498 0.07815,0.13025 0.104205,0.26051 0,0.10421 -0.02605,0.13026 z m -4.298462,-1.14626 q -0.104205,0.26051 -0.182358,0.49498 -0.07815,0.23446 -0.156308,0.44287 0.41682,-0.26052 0.989948,-0.65128 0.59918,-0.41682 1.068103,-0.8597 0.468923,-0.44287 0.651282,-0.91179 0.182359,-0.46892 -0.156308,-0.83364 v -0.026 q -0.20841,0.026 -0.390769,0.0781 -0.182359,0.0521 -0.390769,0.20841 -0.416821,0.28656 -0.781539,0.83364 -0.364717,0.54708 -0.651282,1.22441 z" />
      <path
         id="path862"
         style="fill:#ffe6d5;stroke:#ff6600;stroke-width:0.5;stroke-miterlimit:4;stroke-dasharray:none"
         d="m 86.401111,122.11938 q 0.364718,0.23446 0.494974,0.46892 0.07815,0.13026 0.104206,0.26051 -0.02605,0.0521 -0.02605,0.13026 v 0.0261 q -0.364718,1.38072 -1.068102,2.05805 -0.677334,0.65128 -1.432821,0.9118 -0.651282,0.20841 -1.198359,0.20841 -0.547076,0 -0.859692,-0.0521 -0.703384,-0.13025 -1.120205,-0.46892 -0.41682,-0.36472 -0.625231,-0.83364 -0.182359,-0.49498 -0.20841,-1.016 -0.0521,-0.54708 0,-1.016 0.0521,-0.52103 0.182359,-0.9639 0.130256,-0.46892 0.260513,-0.80759 0.234461,-0.52102 0.521025,-1.016 0.312616,-0.49497 0.625231,-0.85969 0.338667,-0.39077 0.703385,-0.59918 0.364718,-0.20841 0.755487,-0.18236 0.338667,0.0521 0.677333,0.15631 0.286564,0.1042 0.625231,0.31261 0.364718,0.18236 0.651282,0.54708 0,0 0.02605,0.0521 v 0.0261 q 0.02605,0.23447 -0.07815,0.36472 -0.104205,0.13026 -0.260512,0.20841 -0.130257,0.0521 -0.312616,0.0782 -0.156307,0.0261 -0.260513,0.0261 -0.104205,0 -0.104205,-0.0521 v -0.0782 q 0.0521,-0.1042 0.07815,-0.23446 0.02605,-0.13026 0.0521,-0.20841 -0.286564,0.0521 -0.494975,0.20841 -0.442871,0.28656 -0.807589,0.85969 -0.364718,0.54708 -0.651282,1.25046 -0.364718,0.88575 -0.494975,1.53703 -0.104205,0.62523 -0.07815,1.0681 0.02605,0.49498 0.182358,0.85969 1.172308,0.20841 1.927795,-0.0781 0.781539,-0.28656 1.22441,-0.75549 0.442872,-0.49497 0.651282,-1.016 0.208411,-0.54707 0.260513,-0.83364 0.02605,-0.13025 0.02605,-0.20841 0,-0.1042 0.02605,-0.18236 0,-0.1042 0.02605,-0.1563 z" />
      <path
         id="path864"
         style="fill:#ffe6d5;stroke:#ff6600;stroke-width:0.5;stroke-miterlimit:4;stroke-dasharray:none"
         d="m 92.643752,122.97907 q -0.364718,1.32861 -1.068103,1.9799 -0.677333,0.65128 -1.406769,0.91179 -0.625231,0.20841 -1.198359,0.20841 -0.547077,0 -0.833641,-0.0521 -0.703385,-0.13026 -1.120205,-0.46893 -0.416821,-0.36471 -0.625231,-0.83364 -0.182359,-0.46892 -0.20841,-0.96389 -0.0521,-0.52103 0,-0.98995 0.0521,-0.54708 0.182359,-0.98995 0.130256,-0.46892 0.260513,-0.75549 0.234461,-0.54708 0.521025,-1.016 0.286564,-0.49497 0.625231,-0.85969 0.338667,-0.36472 0.677333,-0.57313 0.364718,-0.20841 0.755488,-0.18236 0.338666,0.0521 0.677333,0.15631 0.286564,0.10421 0.625231,0.28656 0.338666,0.18236 0.62523,0.52103 0.02605,0.026 0.130257,0.18236 0.130256,0.15631 0.182359,0.44287 0.0521,0.28656 -0.0521,0.67733 -0.07815,0.39077 -0.468923,0.8597 -0.364718,0.46892 -1.120205,1.04205 -0.729436,0.54707 -1.979897,1.14625 -0.0521,0.39077 -0.0521,0.67734 0.02605,0.28656 0.07815,0.49497 0.0521,0.23446 0.104205,0.36472 0.104205,0.15631 0.364718,0.23446 0.260513,0.0521 0.573128,0.026 0.312616,-0.026 0.59918,-0.0781 0.312615,-0.0782 0.521025,-0.15631 0.521026,-0.20841 0.859692,-0.57313 0.364718,-0.36472 0.59918,-0.75548 0.234461,-0.39077 0.338667,-0.72944 0.130256,-0.36472 0.182359,-0.57313 0.02605,-0.13026 0.0521,-0.23446 0.02605,-0.10421 0.02605,-0.18236 v -0.15631 q 0.364718,0.20841 0.494975,0.49498 0.07815,0.13025 0.104205,0.26051 0,0.10421 -0.02605,0.13026 z m -4.298462,-1.14626 q -0.104205,0.26051 -0.182359,0.49498 -0.07815,0.23446 -0.156307,0.44287 0.41682,-0.26052 0.989948,-0.65128 0.59918,-0.41682 1.068103,-0.8597 0.468923,-0.44287 0.651282,-0.91179 0.182359,-0.46892 -0.156308,-0.83364 v -0.026 q -0.20841,0.026 -0.390769,0.0781 -0.182359,0.0521 -0.390769,0.20841 -0.416821,0.28656 -0.781539,0.83364 -0.364718,0.54708 -0.651282,1.22441 z" />
      <path
         id="path866"
         style="fill:#ffe6d5;stroke:#ff6600;stroke-width:0.5;stroke-miterlimit:4;stroke-dasharray:none"
         d="m 96.814297,125.34973 q 0.677333,-0.28656 1.068102,-0.85969 0.390769,-0.57313 0.59918,-1.14625 0.234461,-0.67734 0.286564,-1.38072 0.20841,0.13025 0.312615,0.26051 0.130256,0.13026 0.182359,0.26051 0.07815,0.13026 0.104205,0.26052 -0.156308,0.96389 -0.521026,1.58912 -0.338666,0.62524 -0.703384,0.98995 -0.442872,0.44287 -0.911795,0.67734 -0.885744,-0.20841 -1.458872,-0.54708 -0.573128,-0.33867 -0.677333,-0.85969 -0.156308,-0.83364 0.02605,-2.00595 0.208411,-1.19836 0.494975,-2.26646 -0.59918,0.72943 -1.068103,1.69333 -0.442872,0.93785 -0.755487,1.82359 -0.312615,0.85969 -0.468923,1.48492 -0.156308,0.62523 -0.182359,0.70339 0,0.13025 -0.130256,0.13025 -0.182359,-0.0521 -0.547077,-0.1042 -0.338667,-0.0782 -0.755487,-0.28657 -0.07815,-0.026 -0.07815,-0.1042 v -0.0521 q -0.0521,-0.57313 0.02605,-1.38072 0.0521,-0.80759 0.20841,-1.69333 0.156308,-0.9118 0.364718,-1.84964 0.20841,-0.9639 0.416821,-1.82359 0.02605,-0.13026 -0.02605,-0.18236 -0.02605,-0.0521 0,-0.18236 0.02605,-0.0782 0.156308,-0.0782 h 0.02605 0.07815 0.02605 q 0.02605,0.026 0.0521,0.026 h 0.02605 q 0.234462,0.0782 0.625231,0.26052 0.416821,0.15631 0.729436,0.44287 l 0.02605,0.026 q 0.02605,0 0.07815,0.0782 0.0521,0.0521 0.02605,0.18236 0,0.0521 -0.02605,0.0782 v 0.0521 q -0.0521,0.15631 -0.0521,0.18236 -0.156307,0.52102 -0.312615,1.09415 -0.130256,0.57313 -0.260513,1.14626 0.59918,-1.25046 1.22441,-2.11015 0.651282,-0.8597 1.016,-1.27652 l 0.02605,-0.026 0.156307,-0.15631 q 0.104205,-0.1042 0.234462,-0.1042 0.07815,0 0.156308,0.026 0.260512,0.1042 0.573128,0.26051 0.338666,0.15631 0.599179,0.39077 0.0521,0.0261 0.104205,0.10421 0.0521,0.0781 0,0.26051 v 0.026 0.026 q -0.521025,1.38072 -0.755487,2.50093 -0.234461,1.09415 -0.312615,1.84964 -0.104205,0.91179 -0.02605,1.58912 z" />
      <path
         id="path868"
         style="fill:#ffe6d5;stroke:#ff6600;stroke-width:0.5;stroke-miterlimit:4;stroke-dasharray:none"
         d="m 103.80062,123.13538 q -0.18236,0.62523 -0.49498,1.19835 -0.28656,0.54708 -0.78153,0.98995 -0.49498,0.41682 -1.19836,0.65129 -0.67734,0.23446 -1.615182,0.20841 -0.729436,-0.0261 -1.120205,-0.28657 -0.416821,-0.28656 -0.547077,-0.70338 -0.156308,-0.44288 -0.07815,-1.016 0.0521,-0.57313 0.260513,-1.19836 0.02605,-0.026 0.02605,-0.0782 l 0.286564,-0.67733 q 0.0521,-0.13026 0.0521,-0.18236 -0.02605,-0.0521 0.02605,-0.18236 0.02605,-0.0521 0.156308,-0.0521 l 0.02605,0.026 h 0.104205 q 0.0521,0.0521 0.0521,0.0521 h 0.02605 q 0.20841,0.13026 0.677333,0.39077 0.468925,0.23446 0.703385,0.57313 v 0.026 q 0.026,0 0.0521,0.0782 0.026,0.0782 -0.026,0.18236 0,0.0521 -0.026,0.0782 l -0.026,0.0521 q -0.10421,0.15631 -0.10421,0.18236 l -0.1042,0.13026 q -0.15631,0.33866 -0.286566,0.70338 -0.104205,0.33867 -0.156308,0.62523 -0.02605,0.28657 0.02605,0.46893 0.07815,0.18235 0.260512,0.18235 0.54708,0 0.93785,-0.26051 0.41682,-0.28656 0.70338,-0.70338 0.28657,-0.41682 0.46892,-0.88575 0.18236,-0.46892 0.28657,-0.85969 0.15631,-0.65128 -0.10421,-0.93784 -0.26051,-0.31262 -0.75548,-0.41683 -0.46893,-0.13025 -1.12021,-0.1042 -0.651281,0.026 -1.302563,0.026 -0.104205,0 -0.104205,-0.1042 l 0.0521,-0.0261 q 0.07815,-0.41682 0.0521,-0.78153 0,-0.36472 -0.0521,-0.59918 -0.02605,-0.0521 0.02605,-0.10421 0.07815,-0.0521 0.07815,-0.0781 0.729436,-0.67734 1.693331,-1.04205 0.9639,-0.39077 2.00595,-0.54708 0.52103,0.0261 0.88574,0.65128 0.0521,0.18236 0.0521,0.39077 0,0.18236 -0.0782,0.39077 -0.0781,0.20841 -0.31261,0.44287 l -0.10421,0.0521 q -0.13025,0.0521 -0.23446,0.0261 -0.026,0 -0.026,-0.10421 0,-0.0521 0.026,-0.1042 0,-0.0521 -0.15631,-0.18236 -0.13025,-0.13026 -0.44287,-0.20841 -0.28656,-0.0782 -0.78154,0 -0.46892,0.0781 -1.14625,0.46892 0.46892,0 1.1202,0.18236 0.65128,0.18236 1.19836,0.57313 0.54708,0.36471 0.85969,0.96389 0.31262,0.59918 0.10421,1.45888 z" />
      <path
         id="path870"
         style="fill:#ffe6d5;stroke:#ff6600;stroke-width:0.5;stroke-miterlimit:4;stroke-dasharray:none"
         d="m 106.54445,126.31363 q -0.85969,-0.20841 -1.45887,-0.54708 -0.59918,-0.36471 -0.67733,-0.85969 -0.0782,-0.46892 0.026,-1.27651 0.0782,-0.80759 0.23446,-1.69333 0.18236,-0.88575 0.36472,-1.69334 0.18236,-0.80759 0.31261,-1.27651 0.0521,-0.20841 0,-0.26051 -0.0521,-0.0782 0,-0.20841 0.026,-0.0782 0.15631,-0.0782 h 0.0782 0.0521 q 0.026,0.026 0.0521,0.026 0.23446,0.0782 0.62523,0.26052 0.41682,0.15631 0.72944,0.44287 0.0521,0.026 0.1042,0.13026 0.0521,0.0781 0,0.23446 v 0.0521 q -0.36472,1.22441 -0.57313,2.31856 -0.18236,1.09416 -0.28656,1.9278 -0.10421,0.98995 -0.15631,1.82359 0.67733,-0.28657 1.0681,-0.88575 0.39077,-0.59917 0.59918,-1.19835 0.23446,-0.67734 0.28657,-1.48493 0.36471,0.20841 0.49497,0.49498 0.0782,0.13025 0.10421,0.26051 -0.15631,0.9639 -0.52103,1.64123 -0.33867,0.65128 -0.70338,1.0681 -0.44288,0.46893 -0.9118,0.78154 z m 0.59918,-11.46256 q 0.31262,0.28656 0.59918,0.62523 0.28656,0.31261 0.33867,0.75549 v 0.1042 q 0,0.13026 -0.0521,0.20841 -0.31261,0.46892 -0.46892,1.016 0,0.0521 -0.026,0.0782 -0.0261,0.0782 -0.13026,0.20841 -0.0781,0.13025 -0.26051,0.1042 -0.52102,-0.1042 -0.78154,-0.31261 -0.23446,-0.20841 -0.33866,-0.41683 -0.0782,-0.20841 -0.0782,-0.41682 0,-0.20841 0.0521,-0.33866 0.0261,-0.0782 0.0261,-0.15631 0.026,-0.10421 0.0781,-0.15631 0.13026,-0.31261 0.31261,-0.62523 0.20842,-0.31261 0.41683,-0.59918 0.0521,-0.0521 0.1042,-0.0781 0.13026,-0.0521 0.20841,0 z" />
      <path
         id="path872"
         style="fill:#ffe6d5;stroke:#ff6600;stroke-width:0.5;stroke-miterlimit:4;stroke-dasharray:none"
         d="m 113.81154,118.99322 q 0.0261,0.0261 0.0782,0.10421 0.0781,0.0781 0.026,0.26051 -0.026,0 -0.026,0.026 v 0.026 q -0.26051,0.67734 -0.44287,1.30257 -0.15631,0.62523 -0.28657,1.14625 -0.026,0.13026 -0.13025,0.18236 -0.0521,0.026 -0.0782,0 -0.59918,-0.1042 -0.93784,-0.23446 -0.31262,-0.15631 -0.49498,-0.26051 -0.13025,-0.0521 -0.13025,-0.20841 v -0.15631 l 0.23446,-0.85969 q -0.57313,0.67733 -1.016,1.56307 -0.44287,0.88575 -0.75549,1.71939 -0.31261,0.83364 -0.49497,1.48492 -0.15631,0.65128 -0.20841,0.85969 v 0.0782 q 0,0.0521 -0.0261,0.0782 -0.0521,0.0521 -0.1042,0.0521 -0.18236,-0.0521 -0.54708,-0.1042 -0.33866,-0.0782 -0.75548,-0.28657 -0.0782,-0.026 -0.0782,-0.1042 v -0.0521 q -0.0521,-0.57313 0.0261,-1.38072 0.0521,-0.80759 0.20841,-1.69333 0.15631,-0.9118 0.36472,-1.84964 0.20841,-0.9639 0.41682,-1.82359 0.026,-0.13026 -0.026,-0.18236 -0.026,-0.0521 0,-0.18236 0.026,-0.0782 0.15631,-0.0782 h 0.026 0.0781 0.026 q 0.0261,0.026 0.0521,0.026 h 0.0261 q 0.23446,0.0782 0.62523,0.26052 0.41682,0.15631 0.72943,0.44287 l 0.0261,0.026 q 0.026,0 0.0781,0.0782 0.0521,0.0521 0.026,0.18236 0,0.0521 -0.026,0.0782 v 0.0521 q -0.0521,0.15631 -0.0521,0.18236 -0.13026,0.52102 -0.28657,1.0681 -0.1563,0.54708 -0.28656,1.12021 0.59918,-1.22441 1.22441,-2.05805 0.62523,-0.8597 0.98995,-1.27652 0.0261,0 0.0261,-0.026 0.0781,-0.0261 0.15631,-0.15631 0.1042,-0.1042 0.26051,-0.1042 0.0782,0 0.13026,0.026 0.26051,0.1042 0.57312,0.26051 0.33867,0.15631 0.59918,0.39077 h 0.0261 z" />
      <path
         id="path874"
         style="fill:#ffe6d5;stroke:#ff6600;stroke-width:0.5;stroke-miterlimit:4;stroke-dasharray:none"
         d="m 120.35885,122.97907 q -0.36471,1.32861 -1.0681,1.9799 -0.67733,0.65128 -1.40677,0.91179 -0.62523,0.20841 -1.19836,0.20841 -0.54707,0 -0.83364,-0.0521 -0.70338,-0.13026 -1.1202,-0.46893 -0.41682,-0.36471 -0.62523,-0.83364 -0.18236,-0.46892 -0.20841,-0.96389 -0.0521,-0.52103 0,-0.98995 0.0521,-0.54708 0.18236,-0.98995 0.13025,-0.46892 0.26051,-0.75549 0.23446,-0.54708 0.52102,-1.016 0.28657,-0.49497 0.62524,-0.85969 0.33866,-0.36472 0.67733,-0.57313 0.36472,-0.20841 0.75549,-0.18236 0.33866,0.0521 0.67733,0.15631 0.28656,0.10421 0.62523,0.28656 0.33867,0.18236 0.62523,0.52103 0.026,0.026 0.13026,0.18236 0.13025,0.15631 0.18236,0.44287 0.0521,0.28656 -0.0521,0.67733 -0.0781,0.39077 -0.46892,0.8597 -0.36472,0.46892 -1.1202,1.04205 -0.72944,0.54707 -1.9799,1.14625 -0.0521,0.39077 -0.0521,0.67734 0.026,0.28656 0.0782,0.49497 0.0521,0.23446 0.1042,0.36472 0.10421,0.15631 0.36472,0.23446 0.26051,0.0521 0.57313,0.026 0.31262,-0.026 0.59918,-0.0781 0.31262,-0.0782 0.52103,-0.15631 0.52102,-0.20841 0.85969,-0.57313 0.36472,-0.36472 0.59918,-0.75548 0.23446,-0.39077 0.33866,-0.72944 0.13026,-0.36472 0.18236,-0.57313 0.026,-0.13026 0.0521,-0.23446 0.026,-0.10421 0.026,-0.18236 v -0.15631 q 0.36471,0.20841 0.49497,0.49498 0.0782,0.13025 0.10421,0.26051 0,0.10421 -0.0261,0.13026 z m -4.29846,-1.14626 q -0.1042,0.26051 -0.18236,0.49498 -0.0781,0.23446 -0.1563,0.44287 0.41682,-0.26052 0.98995,-0.65128 0.59917,-0.41682 1.0681,-0.8597 0.46892,-0.44287 0.65128,-0.91179 0.18236,-0.46892 -0.15631,-0.83364 v -0.026 q -0.20841,0.026 -0.39077,0.0781 -0.18236,0.0521 -0.39077,0.20841 -0.41682,0.28656 -0.78153,0.83364 -0.36472,0.54708 -0.65129,1.22441 z" />
      <path
         id="path876"
         style="fill:#ffd5d5;stroke:#d40000;stroke-width:0.5;stroke-miterlimit:4;stroke-dasharray:none"
         d="m 120.85617,124.49004 q 0.23446,0.20841 0.44287,0.46893 0.20841,0.23446 0.26051,0.57312 0.026,0.026 0.026,0.0782 0,0.0521 -0.0521,0.1563 -0.26051,0.39077 -0.36472,0.75549 v 0.0521 q -0.026,0.0521 -0.1042,0.15631 -0.0782,0.10421 -0.20841,0.0782 -0.39077,-0.0782 -0.57313,-0.23447 -0.18236,-0.1563 -0.26051,-0.31261 -0.0521,-0.13026 -0.0521,-0.28656 0,-0.15631 0.0261,-0.28657 l 0.0781,-0.23446 q 0.26051,-0.52103 0.54708,-0.9118 0.0261,-0.026 0.0782,-0.0521 0.10421,-0.0521 0.15631,0 z" />
      <path
         id="path878"
         style="fill:#ffd5d5;stroke:#d40000;stroke-width:0.5;stroke-miterlimit:4;stroke-dasharray:none"
         d="m 128.26328,122.97907 q -0.36472,1.32861 -1.0681,1.9799 -0.67733,0.65128 -1.40677,0.91179 -0.62523,0.20841 -1.19836,0.20841 -0.54708,0 -0.83364,-0.0521 -0.70338,-0.13026 -1.12021,-0.46893 -0.41682,-0.36471 -0.62523,-0.83364 -0.18236,-0.46892 -0.20841,-0.96389 -0.0521,-0.52103 0,-0.98995 0.0521,-0.54708 0.18236,-0.98995 0.13026,-0.46892 0.26052,-0.75549 0.23446,-0.54708 0.52102,-1.016 0.28657,-0.49497 0.62523,-0.85969 0.33867,-0.36472 0.67734,-0.57313 0.36471,-0.20841 0.75548,-0.18236 0.33867,0.0521 0.67734,0.15631 0.28656,0.10421 0.62523,0.28656 0.33866,0.18236 0.62523,0.52103 0.0261,0.026 0.13025,0.18236 0.13026,0.15631 0.18236,0.44287 0.0521,0.28656 -0.0521,0.67733 -0.0782,0.39077 -0.46892,0.8597 -0.36472,0.46892 -1.12021,1.04205 -0.72943,0.54707 -1.9799,1.14625 -0.0521,0.39077 -0.0521,0.67734 0.026,0.28656 0.0782,0.49497 0.0521,0.23446 0.1042,0.36472 0.10421,0.15631 0.36472,0.23446 0.26051,0.0521 0.57313,0.026 0.31261,-0.026 0.59918,-0.0781 0.31261,-0.0782 0.52102,-0.15631 0.52103,-0.20841 0.85969,-0.57313 0.36472,-0.36472 0.59918,-0.75548 0.23447,-0.39077 0.33867,-0.72944 0.13026,-0.36472 0.18236,-0.57313 0.0261,-0.13026 0.0521,-0.23446 0.026,-0.10421 0.026,-0.18236 v -0.15631 q 0.36472,0.20841 0.49498,0.49498 0.0782,0.13025 0.1042,0.26051 0,0.10421 -0.026,0.13026 z m -4.29846,-1.14626 q -0.10421,0.26051 -0.18236,0.49498 -0.0781,0.23446 -0.15631,0.44287 0.41682,-0.26052 0.98995,-0.65128 0.59918,-0.41682 1.0681,-0.8597 0.46893,-0.44287 0.65129,-0.91179 0.18236,-0.46892 -0.15631,-0.83364 v -0.026 q -0.20841,0.026 -0.39077,0.0781 -0.18236,0.0521 -0.39077,0.20841 -0.41682,0.28656 -0.78154,0.83364 -0.36472,0.54708 -0.65128,1.22441 z" />
      <path
         id="path880"
         style="fill:#ffd5d5;stroke:#d40000;stroke-width:0.5;stroke-miterlimit:4;stroke-dasharray:none"
         d="m 134.30951,122.06727 q 0.36472,0.20841 0.49498,0.49498 0.0782,0.13025 0.1042,0.26051 -0.1563,0.9639 -0.52102,1.61518 -0.33867,0.62523 -0.70339,0.98995 -0.44287,0.44287 -0.91179,0.67733 -0.85969,-0.20841 -1.45887,-0.54708 -0.57313,-0.36471 -0.65128,-0.85969 -0.0261,-0.1042 -0.0261,-0.33866 -0.28656,0.59918 -0.52102,0.96389 -0.23446,0.36472 -0.41682,0.54708 -0.20841,0.23446 -0.39077,0.28656 -0.49498,-0.13025 -0.80759,-0.33866 -0.31262,-0.20841 -0.52103,-0.44287 -0.23446,-0.26052 -0.36471,-0.57313 -0.18236,-1.25046 -0.10421,-2.29252 0.0781,-1.0681 0.26051,-1.87569 0.20841,-0.83364 0.44287,-1.40677 0.23447,-0.57312 0.36472,-0.80759 0.026,-0.0521 0.0782,-0.1042 0.13025,-0.13026 0.26051,-0.18236 0.31261,-0.10421 0.59918,-0.026 0.31261,0.0782 0.54708,0.20841 0.28656,0.13025 0.44287,0.31261 0.15631,0.18236 0.26051,0.31262 0.0521,0.1042 -0.0521,0.15631 -0.0521,0.026 -0.10421,0 -0.0781,0 -0.13025,0.0521 l -0.026,0.026 q -0.57313,0.83364 -0.83365,1.84964 -0.23446,1.016 -0.33866,1.9278 -0.10421,1.04205 -0.0521,2.1362 0.28657,-0.1042 0.59918,-0.72943 0.33867,-0.65129 0.62524,-1.45888 0.28656,-0.80759 0.52102,-1.61518 0.23446,-0.83364 0.36472,-1.32861 0.0781,-0.31262 0.13026,-0.57313 0.0781,-0.26051 0.13025,-0.46892 v -0.026 q 0.026,-0.0521 0.026,-0.13026 0.026,-0.1042 0.0782,-0.20841 0,-0.026 0.0521,-0.0781 0.026,-0.0782 0.18236,-0.0782 0.23446,0.0782 0.62523,0.26052 0.41682,0.1563 0.72943,0.44287 h 0.0261 q 0.026,0.026 0.0781,0.13025 0.0781,0.0782 0.026,0.23446 -0.026,0.0261 -0.026,0.0521 -0.36472,1.22441 -0.57313,2.29251 -0.18236,1.0681 -0.28656,1.87569 -0.10421,0.93785 -0.15631,1.74544 0.67733,-0.28657 1.04205,-0.85969 0.39077,-0.57313 0.59918,-1.12021 0.23446,-0.65128 0.28656,-1.38072 z" />
    </g>
  </g>
</svg>
