<?xml version="1.0" ?><!DOCTYPE svg  PUBLIC '-//W3C//DTD SVG 1.1//EN'  'http://www.w3.org/Graphics/SVG/1.1/DTD/svg11.dtd'><svg enable-background="new 0 0 128 128" id="Слой_1" version="1.1" viewBox="0 0 128 128" xml:space="preserve" xmlns="http://www.w3.org/2000/svg" xmlns:xlink="http://www.w3.org/1999/xlink"><g><g><g><g><path d="M14.7,95.1l47.7,20c1.1,0.5,2.3,0.5,3.4,0l47.7-20.2c1.6-0.7,2.6-2.2,2.6-4V36.9c0-1.7-1-3.3-2.7-4      l-47.7-20c-1.1-0.5-2.3-0.5-3.4,0L14.6,33.1C13,33.7,12,35.3,12,37v54.1C12,92.9,13,94.4,14.7,95.1z" fill="#FFFFFF"/></g></g></g><g><g><g><path d="M114.8,34.9l-51,21.7v54.9c0,1.9,1.9,3.1,3.6,2.4l47-19.6c1-0.4,1.6-1.3,1.6-2.4V35.7      C116,35.1,115.4,34.7,114.8,34.9z" fill="#C7D7E2"/></g></g></g><g><g><g><g><path d="M64,118.5L64,118.5c-1,0-1.9-0.2-2.8-0.6l-47.7-20C10.8,96.7,9,94.1,9,91.1V37c0-2.9,1.8-5.6,4.5-6.7       l47.7-20.2c1.8-0.8,3.9-0.8,5.7,0l47.7,20c2.7,1.1,4.5,3.8,4.5,6.7V91c0,2.9-1.8,5.6-4.5,6.7l-47.7,20.2       C65.9,118.3,65,118.5,64,118.5z M64,15.5c-0.2,0-0.4,0-0.5,0.1L15.8,35.8C15.3,36,15,36.5,15,37v54.1c0,0.5,0.3,1,0.8,1.2       l47.7,20c0.3,0.1,0.7,0.1,1,0l47.7-20.2c0.5-0.2,0.8-0.7,0.8-1.2V36.9c0-0.5-0.3-1-0.8-1.2l-47.7-20       C64.4,15.6,64.2,15.5,64,15.5z" fill="#454B54"/></g></g></g><g><g><g><path d="M89.9,48.5c-1.2,0-2.3-0.7-2.8-1.8c-0.7-1.5,0-3.3,1.6-3.9L113.6,32c1.5-0.7,3.3,0,3.9,1.6       c0.7,1.5,0,3.3-1.6,3.9L91.1,48.3C90.7,48.5,90.3,48.5,89.9,48.5z" fill="#454B54"/></g></g></g><g><g><g><path d="M64,117.1c-1.7,0-3-1.3-3-3L60.9,59c0-0.5-0.3-1-0.8-1.2l-48-20.3c-1.5-0.6-2.2-2.4-1.6-3.9       c0.6-1.5,2.4-2.2,3.9-1.6l48,20.3c2.7,1.1,4.5,3.8,4.5,6.7l0.1,55.1C67,115.8,65.7,117.1,64,117.1C64,117.1,64,117.1,64,117.1z       " fill="#454B54"/></g></g></g><g><g><g><path d="M37.9,56.8c-1.7,0-3-1.3-3-3V48c0-2.9,1.8-5.6,4.5-6.7l49.3-21c1.5-0.7,3.3,0.1,3.9,1.6       c0.6,1.5-0.1,3.3-1.6,3.9l-49.3,21c-0.5,0.2-0.8,0.7-0.8,1.2v5.8C40.9,55.4,39.6,56.8,37.9,56.8z" fill="#454B54"/></g></g></g></g></g></svg>